<?xml version="1.0" encoding="UTF-8"?>
<svg id="Layer_1" data-name="Layer 1" xmlns="http://www.w3.org/2000/svg" viewBox="0 0 224.27 123.92">
  <defs>
    <style>
      .cls-1 {
        fill: #fff;
      }
    </style>
  </defs>
  <path class="cls-1" d="M71.61,0v11.36c0,.96,3.33,7.91,4.07,9.23,15.99,28.54,57.09,28.96,73.73.82,1.04-1.76,4.54-8.83,4.54-10.47V0h8.58v11.36c0,.23,1.38,3.73,1.64,4.37,6.4,15.94,22.37,26.52,39.53,26.72v6.86l-10.72-.86v13.29h10.72v5.15c-13.32.26-26.11-1.2-39.11,2.26-3.57.95-7.05,2.22-10.42,3.73l-.21-3h-36.45v28.3h-8.58v-28.3h-37.31l-.21,3c-6.97-2.94-14.67-5.47-22.31-5.99-8.84-.61-18.32.44-27.23,0v-5.15h7.29v-12.86l-7.29.43v-6.86c16.91-.31,32.16-10.1,38.96-25.58.34-.78,2.21-5.17,2.21-5.51V0h8.58ZM63.04,61.75V27.87c-2.72,3.34-5.36,6.74-8.58,9.65v24.23h8.58ZM71.61,61.75h7.5l.64-.64v-24.01l-8.15-9.22v33.88ZM153.95,61.75V27.87l-8.58,9.65v23.58l.64.64h7.93ZM162.52,61.75h6.22c.61-.38.59-.85.67-1.48.87-7.38-.68-16.46-.03-24.03l-6.85-8.37v33.88ZM184.39,45.45l-6.86-3v18.65l.64.64h6.22v-16.29ZM93.48,45.45l-5.57-2.57v18.87h5.57v-16.29ZM46.31,43.31l-8.58,3.43v15.01h7.93l.64-.64v-17.8ZM137.22,43.31l-5.57,2.14v16.29c1.78-.25,4.21.64,5.57-.64v-17.8ZM108.92,49.31l-6.86-.86v13.29h6.86v-12.44ZM123.07,48.46l-5.57.86v12.44h5.57v-13.29Z"/>
  <path class="cls-1" d="M202.62,68.61l21.66,30.44c-36.82-7.25-82.32-7.21-109.34,22.73,1.37-3,3.68-6.02,5.78-8.58,8.22-9.99,20.19-18.42,32.27-23.04,16.87-6.46,34.79-6.74,52.42-3.54l-9-18.01h6.22Z"/>
  <path class="cls-1" d="M29.16,68.61l-9,18.01c17.57-3.19,35.62-2.89,52.42,3.54,13.65,5.23,26.98,15.25,35.41,27.2.94,1.33,2.13,2.89,2.65,4.42-27.06-29.94-72.49-29.98-109.34-22.73l21.66-30.44h6.22Z"/>
  <path class="cls-1" d="M111.49,123.92c-7.8-3.23-15.83-5.97-24.09-7.85-24.72-5.63-52.15-5.99-77.32-3.72-2.89.26-5.81.9-8.71,1.16-.47.04-1.46.51-1.37-.3,10.08-3.69,20.16-7.39,30.79-9.3,28.41-5.11,59.08.14,80.7,20.01Z"/>
  <path class="cls-1" d="M224.27,112.78c-.13.79-2.2.46-2.78.42-3.69-.25-7.46-1.01-11.16-1.28-32.14-2.29-66.33-.64-96.27,12,29.91-27.37,74.64-26.43,110.2-11.14Z"/>
  <path class="cls-1" d="M111.06,120.49l-5.22-7.85c-18.02-25.25-45.91-40.12-77.54-35.03l5.14-8.79c8.25-.54,16.33-.48,24.45,1.28,25.82,5.6,45.52,25.43,53.16,50.39Z"/>
  <path class="cls-1" d="M197.26,77.61c-30.85-5-58.71,9.28-76.68,33.75l-6.08,9.14c7.88-26.28,30.17-47.37,57.79-51.34,4.85-.7,14-1.15,18.78-.57.59.07.76.05,1.26.46,1.55,1.29,3.14,6.86,4.94,8.57Z"/>
  <path class="cls-1" d="M117.5,99.91c.95,5.18-2.82,8.69-4.29,13.29-.61-.04-.66-.66-.87-1.06-1.91-3.7-3.93-7.99-3.42-12.23h8.58Z"/>
</svg>